<?xml version="1.0" standalone="no"?>
<!DOCTYPE svg PUBLIC "-//W3C//DTD SVG 20010904//EN"
 "http://www.w3.org/TR/2001/REC-SVG-20010904/DTD/svg10.dtd">
<svg version="1.0" xmlns="http://www.w3.org/2000/svg"
 width="784.000000pt" height="260.000000pt" viewBox="0 0 784.000000 260.000000"
 preserveAspectRatio="xMidYMid meet">

<g transform="translate(0.000000,260.000000) scale(0.100000,-0.100000)"
fill="#000000" stroke="none">
<path d="M1590 2312 c-36 -24 -60 -56 -101 -133 -21 -38 -46 -83 -57 -101 -11
-18 -31 -53 -44 -78 -14 -25 -42 -76 -62 -115 -60 -110 -47 -105 -291 -105
-116 1 -223 1 -239 0 l-29 0 5 -62 c5 -55 22 -123 49 -193 4 -11 10 -38 14
-60 3 -22 11 -53 16 -70 12 -37 58 -200 69 -240 23 -91 62 -222 70 -236 5 -9
12 -33 16 -54 23 -123 82 -202 168 -224 31 -7 228 -11 619 -11 644 0 644 0
708 67 20 21 42 48 47 59 11 21 237 835 262 942 20 86 32 82 -232 82 -168 1
-237 4 -249 13 -9 7 -30 37 -46 67 -92 170 -229 408 -246 428 -11 12 -28 22
-38 22 -10 0 -21 5 -24 10 -8 13 -40 13 -68 -2 -12 -6 -29 -14 -36 -18 -8 -4
-24 -18 -35 -33 -40 -54 -20 -136 69 -277 12 -19 39 -68 60 -108 36 -70 37
-74 19 -87 -22 -16 -67 -19 -92 -6 -11 6 -66 5 -141 -1 -89 -7 -126 -7 -134 1
-6 6 -19 11 -29 11 -20 0 -23 11 -9 26 12 12 119 201 161 283 26 52 31 73 27
104 -7 50 -36 91 -68 95 -13 2 -28 8 -33 13 -15 14 -48 10 -76 -9z m404 -111
c29 -46 111 -190 149 -261 16 -30 33 -59 37 -65 10 -12 66 -116 92 -168 11
-21 35 -63 54 -93 27 -42 34 -63 32 -92 -3 -33 -6 -37 -34 -40 -37 -4 -42 2
-97 105 -72 131 -206 372 -273 489 -35 61 -64 118 -64 127 0 22 37 46 61 40
11 -3 31 -22 43 -42z m-326 27 c31 -31 7 -107 -70 -222 -23 -33 -48 -76 -57
-95 -9 -20 -29 -56 -44 -81 -99 -163 -139 -234 -153 -272 -17 -46 -58 -88 -85
-88 -9 0 -24 15 -33 33 -18 32 -18 32 16 92 19 33 106 186 193 340 87 154 162
286 168 293 12 15 49 16 65 0z m-495 -534 c16 -6 11 -49 -11 -92 -7 -12 -16
-31 -22 -42 -42 -84 44 -183 143 -165 53 10 81 41 146 160 33 61 64 116 68
123 6 10 68 13 288 13 l280 -1 33 -37 c17 -20 32 -42 32 -49 0 -18 68 -144 93
-171 48 -54 136 -51 191 6 42 44 44 92 6 175 -17 37 -29 70 -27 72 6 6 89 9
200 6 l97 -2 0 -37 c0 -21 -9 -67 -19 -103 -11 -36 -26 -90 -34 -120 -29 -107
-49 -175 -57 -195 -5 -11 -13 -40 -19 -65 -5 -25 -17 -70 -26 -100 -9 -30 -22
-81 -28 -112 -7 -31 -15 -60 -19 -64 -5 -4 -8 -20 -8 -35 0 -38 -14 -71 -43
-103 l-24 -26 -615 0 -614 0 -26 28 c-19 21 -43 90 -103 302 -98 345 -141 499
-159 572 l-14 57 121 4 c67 1 130 4 139 5 9 1 23 -1 31 -4z"/>
<path d="M3187 1602 c-15 -17 -17 -60 -17 -410 0 -215 4 -393 8 -396 5 -3 127
-6 273 -8 l264 -3 0 40 0 40 -208 2 c-114 0 -214 4 -222 7 -13 5 -15 59 -15
362 0 328 -1 358 -17 370 -25 19 -47 17 -66 -4z"/>
<path d="M4615 1610 c-3 -5 -18 -10 -32 -10 -33 0 -87 -41 -117 -89 -30 -47
-39 -103 -27 -164 17 -90 77 -128 280 -176 197 -46 241 -78 241 -176 0 -49
-25 -105 -47 -105 -7 0 -13 -4 -13 -10 0 -5 -13 -10 -29 -10 -17 0 -33 -4 -36
-10 -10 -16 -167 -12 -201 4 -16 8 -41 19 -56 25 -35 13 -65 62 -74 118 -6 39
-9 43 -41 49 -21 4 -39 2 -46 -5 -19 -19 -10 -97 17 -139 61 -96 157 -143 301
-145 206 -2 325 89 325 250 0 73 -21 123 -64 153 -38 27 -109 60 -130 60 -12
1 -32 7 -46 15 -14 8 -51 14 -82 15 -31 0 -60 5 -63 10 -3 6 -17 10 -30 10
-13 0 -27 5 -30 10 -3 6 -15 10 -25 10 -31 0 -63 73 -57 127 9 82 65 115 191
115 54 0 83 -5 114 -21 42 -22 92 -77 92 -102 0 -26 23 -39 68 -39 l44 0 -7
37 c-13 72 -69 145 -130 172 -16 7 -38 17 -47 22 -24 12 -235 11 -243 -1z"/>
<path d="M5207 1602 c-15 -17 -17 -60 -17 -410 0 -377 1 -392 19 -402 11 -5
31 -10 44 -10 l25 0 4 203 c3 226 12 260 78 305 41 28 137 31 176 6 49 -33 54
-56 54 -282 0 -148 3 -211 12 -220 7 -7 27 -12 45 -12 29 0 33 4 38 34 4 19 5
125 3 237 -3 163 -8 211 -21 241 -17 38 -64 78 -90 78 -9 0 -19 5 -22 10 -3 6
-35 10 -71 10 -56 0 -72 -4 -109 -30 -24 -16 -50 -30 -57 -30 -8 0 -19 -5 -26
-12 -9 -9 -12 20 -12 133 0 148 -5 169 -40 169 -9 0 -24 -8 -33 -18z"/>
<path d="M3985 1380 c-3 -5 -19 -10 -36 -10 -16 0 -29 -4 -29 -10 0 -5 -7 -10
-15 -10 -22 0 -84 -69 -108 -120 -29 -61 -31 -223 -4 -289 44 -108 121 -161
244 -169 115 -7 200 35 244 120 24 47 19 68 -15 68 -16 0 -34 -13 -57 -45 -19
-24 -41 -45 -49 -45 -9 0 -21 -5 -27 -11 -7 -7 -36 -12 -66 -13 -67 0 -132 30
-164 77 -22 32 -46 121 -35 132 3 3 106 5 230 5 l225 0 -6 63 c-4 34 -12 80
-18 101 -14 51 -107 146 -143 146 -14 0 -28 5 -31 10 -3 6 -35 10 -70 10 -35
0 -67 -4 -70 -10z m150 -90 c34 -21 61 -55 82 -103 11 -24 10 -34 -2 -58 -18
-35 -23 -35 -72 -8 -34 19 -43 20 -110 10 -149 -22 -182 -11 -163 56 13 47 35
75 80 102 48 28 140 29 185 1z"/>
<path d="M6025 1380 c-3 -5 -17 -10 -31 -10 -13 0 -24 -4 -24 -10 0 -5 -6 -10
-13 -10 -17 0 -95 -77 -112 -111 -21 -41 -38 -166 -31 -228 16 -135 120 -230
262 -239 127 -8 226 45 282 152 25 46 27 61 27 161 0 96 -3 116 -23 153 -54
102 -144 152 -270 152 -33 0 -64 -4 -67 -10z m158 -86 c45 -23 93 -78 101
-115 14 -73 6 -173 -18 -224 -25 -52 -56 -85 -81 -85 -8 0 -15 -4 -15 -10 0
-6 -27 -10 -60 -10 -60 0 -115 21 -151 58 -65 68 -66 272 -1 346 50 56 156 75
225 40z"/>
<path d="M6532 1377 c-14 -17 -18 -805 -4 -819 5 -5 25 -8 43 -6 l34 3 3 147
3 148 50 -35 c59 -40 99 -50 180 -42 109 10 193 83 226 196 19 68 13 207 -12
266 -22 51 -72 115 -91 115 -8 0 -14 4 -14 9 0 10 -44 20 -119 28 -68 6 -128
-12 -160 -50 -13 -15 -29 -26 -36 -23 -7 2 -18 -1 -24 -7 -8 -8 -11 -2 -11 22
0 48 -43 78 -68 48z m362 -88 c69 -40 103 -151 87 -279 -11 -81 -26 -114 -60
-130 -14 -7 -34 -17 -45 -22 -35 -18 -118 -12 -161 12 -56 31 -64 38 -88 84
-16 32 -21 60 -21 126 -1 76 2 91 29 139 38 69 77 91 162 91 45 0 72 -6 97
-21z"/>
</g>
</svg>
